<svg id="visual"  className="current" viewBox="0 0 500 300" width="500" height="300" xmlns="http://www.w3.org/2000/svg" xmlns:xlink="http://www.w3.org/1999/xlink" version="1.1"><path d="M238 0L226.5 12.5C215 25 192 50 194 75C196 100 223 125 234.3 150C245.7 175 241.3 200 236 225C230.7 250 224.3 275 221.2 287.5L218 300L0 300L0 287.5C0 275 0 250 0 225C0 200 0 175 0 150C0 125 0 100 0 75C0 50 0 25 0 12.5L0 0Z" fill="#b6b6b6"></path><path d="M100 0L111.7 12.5C123.3 25 146.7 50 160.7 75C174.7 100 179.3 125 176 150C172.7 175 161.3 200 175.8 225C190.3 250 230.7 275 250.8 287.5L271 300L0 300L0 287.5C0 275 0 250 0 225C0 200 0 175 0 150C0 125 0 100 0 75C0 50 0 25 0 12.5L0 0Z" fill="#756e71"></path><path d="M163 0L158.3 12.5C153.7 25 144.3 50 130.8 75C117.3 100 99.7 125 85.5 150C71.3 175 60.7 200 65.2 225C69.7 250 89.3 275 99.2 287.5L109 300L0 300L0 287.5C0 275 0 250 0 225C0 200 0 175 0 150C0 125 0 100 0 75C0 50 0 25 0 12.5L0 0Z" fill="#3a2e33"></path></svg>