<svg id="visual" className="currnet" viewBox="0 0 900 900" width="900" height="900" xmlns="http://www.w3.org/2000/svg" xmlns:xlink="http://www.w3.org/1999/xlink" version="1.1"><g transform="translate(521.197965918008 490.88179975478226)"><path d="M160.2 -267.3C204.8 -188.1 236.1 -137.5 259.1 -80.9C282 -24.3 296.5 38.4 285.6 99.3C274.7 160.1 238.5 219.2 186.6 278.7C134.8 338.2 67.4 398.1 4.4 392C-58.6 386 -117.2 313.9 -204.5 266C-291.8 218 -407.9 194.1 -428.3 137.7C-448.6 81.3 -373.1 -7.7 -327.1 -93C-281.1 -178.3 -264.6 -259.8 -215 -337.5C-165.4 -415.1 -82.7 -488.8 -12.4 -471.7C57.8 -454.6 115.6 -346.6 160.2 -267.3" fill="#ffffff"></path></g></svg>